# xmcd CD database file
#
# Track frame offsets:
#	150
#	13242
#	27490
#	41263
#	55328
#	70320
#	84501
#	97346
#	111664
#	125061
#	138086
#	154814
#
# Disc length: 2255 seconds
#
# Revision: 0
# Processed by: cddbd v1.5.2PL0 Copyright (c) Steve Scherf et al.
# Submitted via: CDex 1.70beta2
#
DISCID=ad08cd0c
DTITLE=Various Artist - Great American Romantic Standards - Saving My Love For You
DYEAR=2007
DGENRE=Jazz
TTITLE0=You Got Me Right Where You Want Me - Judy Garland/Bing Crosby
TTITLE1=(This is) My Last Affair-Billie Holiday
TTITLE2=Love Somebody-Doris Day
TTITLE3=Tenderly-Sarah Vaughn
TTITLE4=Ain't Misbehavin'-Louis Armstrong
TTITLE5=Love In Bloom-Bing Crosby
TTITLE6=I Wanna Be Loved-Dinah Washington
TTITLE7=That Old Black Magic-Cab Calloway
TTITLE8=Hallelujah, I Love Him So - Connie Francis
TTITLE9=Embraceable You - Judy Garland
TTITLE10=Very Thought - Al Hibber
TTITLE11=As Time Goes By - Billie Holiday
EXTD=YEAR: 2007
EXTT0=
EXTT1=
EXTT2=
EXTT3=
EXTT4=
EXTT5=
EXTT6=
EXTT7=
EXTT8=
EXTT9=
EXTT10=
EXTT11=
PLAYORDER=
